<svg width="26" height="26" viewBox="0 0 26 26" fill="none" xmlns="http://www.w3.org/2000/svg">
<path d="M21.6667 8.66667L15.1667 2.96834C14.5708 2.43539 13.7994 2.14075 13 2.14075C12.2006 2.14075 11.4292 2.43539 10.8333 2.96834L4.33334 8.66667C3.98924 8.97442 3.71465 9.35194 3.52786 9.77411C3.34106 10.1963 3.24634 10.6534 3.25001 11.115V20.5833C3.25001 21.4453 3.59242 22.2719 4.20191 22.8814C4.81141 23.4909 5.63806 23.8333 6.50001 23.8333H19.5C20.362 23.8333 21.1886 23.4909 21.7981 22.8814C22.4076 22.2719 22.75 21.4453 22.75 20.5833V11.1042C22.7521 10.6444 22.6567 10.1893 22.4699 9.76916C22.2832 9.34898 22.0094 8.97321 21.6667 8.66667ZM15.1667 21.6667H10.8333V16.25C10.8333 15.9627 10.9475 15.6871 11.1506 15.484C11.3538 15.2808 11.6294 15.1667 11.9167 15.1667H14.0833C14.3707 15.1667 14.6462 15.2808 14.8494 15.484C15.0525 15.6871 15.1667 15.9627 15.1667 16.25V21.6667ZM20.5833 20.5833C20.5833 20.8707 20.4692 21.1462 20.266 21.3494C20.0629 21.5525 19.7873 21.6667 19.5 21.6667H17.3333V16.25C17.3333 15.3881 16.9909 14.5614 16.3814 13.9519C15.7719 13.3424 14.9453 13 14.0833 13H11.9167C11.0547 13 10.2281 13.3424 9.61858 13.9519C9.00909 14.5614 8.66668 15.3881 8.66668 16.25V21.6667H6.50001C6.21269 21.6667 5.93714 21.5525 5.73398 21.3494C5.53081 21.1462 5.41668 20.8707 5.41668 20.5833V11.1042C5.41687 10.9504 5.44982 10.7983 5.51333 10.6583C5.57684 10.5182 5.66945 10.3932 5.78501 10.2917L12.285 4.60417C12.4827 4.43049 12.7369 4.33471 13 4.33471C13.2632 4.33471 13.5173 4.43049 13.715 4.60417L20.215 10.2917C20.3306 10.3932 20.4232 10.5182 20.4867 10.6583C20.5502 10.7983 20.5832 10.9504 20.5833 11.1042V20.5833Z" fill="#F26F21"/>
</svg>
