<svg width="26" height="26" viewBox="0 0 26 26" fill="none" xmlns="http://www.w3.org/2000/svg">
<path d="M14.0833 17.3333H7.58333C7.29601 17.3333 7.02046 17.4475 6.8173 17.6506C6.61414 17.8538 6.5 18.1293 6.5 18.4167C6.5 18.704 6.61414 18.9795 6.8173 19.1827C7.02046 19.3859 7.29601 19.5 7.58333 19.5H14.0833C14.3706 19.5 14.6462 19.3859 14.8494 19.1827C15.0525 18.9795 15.1667 18.704 15.1667 18.4167C15.1667 18.1293 15.0525 17.8538 14.8494 17.6506C14.6462 17.4475 14.3706 17.3333 14.0833 17.3333ZM9.75 10.8333H11.9167C12.204 10.8333 12.4795 10.7192 12.6827 10.516C12.8859 10.3129 13 10.0373 13 9.74999C13 9.46268 12.8859 9.18713 12.6827 8.98396C12.4795 8.7808 12.204 8.66666 11.9167 8.66666H9.75C9.46268 8.66666 9.18713 8.7808 8.98397 8.98396C8.7808 9.18713 8.66667 9.46268 8.66667 9.74999C8.66667 10.0373 8.7808 10.3129 8.98397 10.516C9.18713 10.7192 9.46268 10.8333 9.75 10.8333ZM22.75 13H19.5V3.24999C19.5008 3.0591 19.4511 2.87139 19.3559 2.70588C19.2608 2.54037 19.1237 2.40294 18.9583 2.30749C18.7936 2.21241 18.6068 2.16235 18.4167 2.16235C18.2265 2.16235 18.0397 2.21241 17.875 2.30749L14.625 4.17083L11.375 2.30749C11.2103 2.21241 11.0235 2.16235 10.8333 2.16235C10.6432 2.16235 10.4564 2.21241 10.2917 2.30749L7.04167 4.17083L3.79167 2.30749C3.62698 2.21241 3.44016 2.16235 3.25 2.16235C3.05983 2.16235 2.87302 2.21241 2.70833 2.30749C2.54301 2.40294 2.40585 2.54037 2.31072 2.70588C2.2156 2.87139 2.16591 3.0591 2.16667 3.24999V20.5833C2.16667 21.4453 2.50907 22.2719 3.11857 22.8814C3.72806 23.4909 4.55471 23.8333 5.41667 23.8333H20.5833C21.4453 23.8333 22.2719 23.4909 22.8814 22.8814C23.4909 22.2719 23.8333 21.4453 23.8333 20.5833V14.0833C23.8333 13.796 23.7192 13.5205 23.516 13.3173C23.3129 13.1141 23.0373 13 22.75 13ZM5.41667 21.6667C5.12935 21.6667 4.8538 21.5525 4.65063 21.3494C4.44747 21.1462 4.33333 20.8706 4.33333 20.5833V5.12416L6.5 6.35916C6.6672 6.44649 6.85303 6.4921 7.04167 6.4921C7.2303 6.4921 7.41613 6.44649 7.58333 6.35916L10.8333 4.49583L14.0833 6.35916C14.2505 6.44649 14.4364 6.4921 14.625 6.4921C14.8136 6.4921 14.9995 6.44649 15.1667 6.35916L17.3333 5.12416V20.5833C17.3363 20.9529 17.4022 21.3193 17.5283 21.6667H5.41667ZM21.6667 20.5833C21.6667 20.8706 21.5525 21.1462 21.3494 21.3494C21.1462 21.5525 20.8706 21.6667 20.5833 21.6667C20.296 21.6667 20.0205 21.5525 19.8173 21.3494C19.6141 21.1462 19.5 20.8706 19.5 20.5833V15.1667H21.6667V20.5833ZM14.0833 13H7.58333C7.29601 13 7.02046 13.1141 6.8173 13.3173C6.61414 13.5205 6.5 13.796 6.5 14.0833C6.5 14.3706 6.61414 14.6462 6.8173 14.8494C7.02046 15.0525 7.29601 15.1667 7.58333 15.1667H14.0833C14.3706 15.1667 14.6462 15.0525 14.8494 14.8494C15.0525 14.6462 15.1667 14.3706 15.1667 14.0833C15.1667 13.796 15.0525 13.5205 14.8494 13.3173C14.6462 13.1141 14.3706 13 14.0833 13Z" fill="#F26F21"/>
</svg>
