<svg width="26" height="26" viewBox="0 0 26 26" fill="none" xmlns="http://www.w3.org/2000/svg">
<path d="M17.3333 21.6665H8.66667C7.80471 21.6665 6.97806 21.3241 6.36857 20.7146C5.75908 20.1051 5.41667 19.2785 5.41667 18.4165V7.58317C5.41667 7.29585 5.30253 7.0203 5.09937 6.81714C4.8962 6.61397 4.62065 6.49984 4.33333 6.49984C4.04602 6.49984 3.77047 6.61397 3.5673 6.81714C3.36414 7.0203 3.25 7.29585 3.25 7.58317V18.4165C3.25 19.8531 3.82068 21.2308 4.8365 22.2467C5.85233 23.2625 7.23008 23.8332 8.66667 23.8332H17.3333C17.6207 23.8332 17.8962 23.719 18.0994 23.5159C18.3025 23.3127 18.4167 23.0372 18.4167 22.7498C18.4167 22.4625 18.3025 22.187 18.0994 21.9838C17.8962 21.7806 17.6207 21.6665 17.3333 21.6665ZM10.8333 14.0832C10.8333 14.3705 10.9475 14.646 11.1506 14.8492C11.3538 15.0524 11.6293 15.1665 11.9167 15.1665H17.3333C17.6207 15.1665 17.8962 15.0524 18.0994 14.8492C18.3025 14.646 18.4167 14.3705 18.4167 14.0832C18.4167 13.7959 18.3025 13.5203 18.0994 13.3171C17.8962 13.114 17.6207 12.9998 17.3333 12.9998H11.9167C11.6293 12.9998 11.3538 13.114 11.1506 13.3171C10.9475 13.5203 10.8333 13.7959 10.8333 14.0832ZM22.75 9.68484C22.7387 9.58532 22.7169 9.48727 22.685 9.39234V9.29484C22.6329 9.18345 22.5634 9.08106 22.4792 8.9915L15.9792 2.4915C15.8896 2.40724 15.7872 2.33776 15.6758 2.28567C15.6435 2.28108 15.6107 2.28108 15.5783 2.28567C15.4683 2.22256 15.3467 2.18204 15.2208 2.1665H10.8333C9.97138 2.1665 9.14473 2.50891 8.53524 3.11841C7.92574 3.7279 7.58333 4.55455 7.58333 5.4165V16.2498C7.58333 17.1118 7.92574 17.9384 8.53524 18.5479C9.14473 19.1574 9.97138 19.4998 10.8333 19.4998H19.5C20.362 19.4998 21.1886 19.1574 21.7981 18.5479C22.4076 17.9384 22.75 17.1118 22.75 16.2498V9.68484ZM16.25 5.86067L19.0558 8.6665H17.3333C17.046 8.6665 16.7705 8.55237 16.5673 8.3492C16.3641 8.14604 16.25 7.87049 16.25 7.58317V5.86067ZM20.5833 16.2498C20.5833 16.5372 20.4692 16.8127 20.266 17.0159C20.0629 17.219 19.7873 17.3332 19.5 17.3332H10.8333C10.546 17.3332 10.2705 17.219 10.0673 17.0159C9.86414 16.8127 9.75 16.5372 9.75 16.2498V5.4165C9.75 5.12919 9.86414 4.85364 10.0673 4.65047C10.2705 4.44731 10.546 4.33317 10.8333 4.33317H14.0833V7.58317C14.0863 7.95274 14.1522 8.31911 14.2783 8.6665H11.9167C11.6293 8.6665 11.3538 8.78064 11.1506 8.98381C10.9475 9.18697 10.8333 9.46252 10.8333 9.74984C10.8333 10.0372 10.9475 10.3127 11.1506 10.5159C11.3538 10.719 11.6293 10.8332 11.9167 10.8332H20.5833V16.2498Z" fill="#F26F21"/>
</svg>
