<svg width="24" height="24" viewBox="0 0 24 24" fill="none" xmlns="http://www.w3.org/2000/svg">
<path d="M20.46 9.67984C20.3274 8.21445 19.8167 6.80857 18.9778 5.59975C18.139 4.39092 17.0007 3.42056 15.6743 2.78358C14.348 2.14661 12.879 1.86485 11.4111 1.96586C9.94316 2.06687 8.52661 2.54719 7.3 3.35984C6.2492 4.06248 5.36706 4.98914 4.71695 6.07323C4.06684 7.15732 3.6649 8.37194 3.54 9.62984C3.41749 10.8795 3.57468 12.1408 4.00017 13.3221C4.42567 14.5035 5.1088 15.5753 6 16.4598L11.3 21.7698C11.393 21.8636 11.5036 21.938 11.6254 21.9887C11.7473 22.0395 11.878 22.0656 12.01 22.0656C12.142 22.0656 12.2727 22.0395 12.3946 21.9887C12.5164 21.938 12.627 21.8636 12.72 21.7698L18 16.4598C18.8912 15.5753 19.5743 14.5035 19.9998 13.3221C20.4253 12.1408 20.5825 10.8795 20.46 9.62984V9.67984Z" fill="#62A94B"/>
<path d="M10.854 13.9116C10.7171 13.8532 10.5928 13.7677 10.4883 13.66L8.33052 11.4531C8.11889 11.2366 8 10.9431 8 10.637C8 10.3309 8.11889 10.0373 8.33052 9.82085C8.54214 9.6044 8.82917 9.4828 9.12845 9.4828C9.42773 9.4828 9.71476 9.6044 9.92638 9.82085L11.2862 11.2232L15.0736 7.33804C15.2852 7.1216 15.5723 7 15.8716 7C16.1708 7 16.4579 7.1216 16.6695 7.33804C16.8811 7.55449 17 7.84805 17 8.15415C17 8.46025 16.8811 8.75381 16.6695 8.97026L12.0842 13.66C11.9797 13.7677 11.8554 13.8532 11.7184 13.9116C11.5815 13.97 11.4346 14 11.2862 14C11.1379 14 10.991 13.97 10.854 13.9116Z" fill="white"/>
</svg>
