<svg width="24" height="24" viewBox="0 0 24 24" fill="none" xmlns="http://www.w3.org/2000/svg">
<path d="M20.46 9.67984C20.3274 8.21445 19.8167 6.80857 18.9778 5.59975C18.139 4.39092 17.0007 3.42056 15.6743 2.78358C14.348 2.14661 12.879 1.86485 11.4111 1.96586C9.94316 2.06687 8.52661 2.54719 7.3 3.35984C6.2492 4.06248 5.36706 4.98914 4.71695 6.07323C4.06684 7.15732 3.6649 8.37194 3.54 9.62984C3.41749 10.8795 3.57468 12.1408 4.00017 13.3221C4.42567 14.5035 5.1088 15.5753 6 16.4598L11.3 21.7698C11.393 21.8636 11.5036 21.938 11.6254 21.9887C11.7473 22.0395 11.878 22.0656 12.01 22.0656C12.142 22.0656 12.2727 22.0395 12.3946 21.9887C12.5164 21.938 12.627 21.8636 12.72 21.7698L18 16.4598C18.8912 15.5753 19.5743 14.5035 19.9998 13.3221C20.4253 12.1408 20.5825 10.8795 20.46 9.62984V9.67984Z" fill="#F96464"/>
<path d="M11.2937 10.2928C11.4812 10.1053 11.7356 9.99992 12.0008 9.99992C12.266 9.99992 12.5204 10.1053 12.7079 10.2928C12.8955 10.4804 13.0008 10.7347 13.0008 10.9999V12.9999C13.0008 13.2651 12.8955 13.5195 12.7079 13.707C12.5204 13.8946 12.266 13.9999 12.0008 13.9999C11.7356 13.9999 11.4812 13.8946 11.2937 13.707C11.1062 13.5195 11.0008 13.2651 11.0008 12.9999V10.9999C11.0008 10.7347 11.1062 10.4804 11.2937 10.2928Z" fill="white"/>
<path d="M12.8308 7.39992C12.8704 7.45097 12.9008 7.50849 12.9208 7.56992C12.9642 7.64333 12.9915 7.72515 13.0008 7.80992C13.0057 7.87316 13.0057 7.93668 13.0008 7.99992C13.0006 8.13397 12.9733 8.2666 12.9208 8.38992C12.8699 8.50794 12.7988 8.61622 12.7108 8.70992C12.6139 8.8012 12.5023 8.87557 12.3808 8.92992C12.136 9.02292 11.8656 9.02292 11.6208 8.92992C11.4979 8.878 11.386 8.80336 11.2908 8.70992C11.2028 8.61622 11.1318 8.50794 11.0808 8.38992C11.0247 8.26774 10.9973 8.13433 11.0008 7.99992C10.9975 7.90946 11.0042 7.81891 11.0208 7.72992C11.0301 7.66369 11.0504 7.59947 11.0808 7.53992C11.1008 7.47849 11.1312 7.42097 11.1708 7.36992L11.2908 7.21992L11.4408 7.08992L11.6208 6.99992H11.8008C11.9614 6.96347 12.1284 6.96721 12.2872 7.01082C12.4459 7.05444 12.5914 7.13657 12.7108 7.24992L12.8308 7.39992Z" fill="white"/>
</svg>
