<svg width="26" height="26" viewBox="0 0 26 26" fill="none" xmlns="http://www.w3.org/2000/svg">
<path d="M24.3425 20.3883L23.2592 16.2066L19.8467 3.65079C19.7729 3.37383 19.5924 3.13737 19.3447 2.99321C19.097 2.84905 18.8022 2.80892 18.525 2.88163L14.3325 3.96496C14.2324 3.85408 14.1105 3.76508 13.9744 3.70356C13.8384 3.64203 13.691 3.60932 13.5417 3.60746H2.70833C2.42102 3.60746 2.14547 3.7216 1.9423 3.92476C1.73914 4.12793 1.625 4.40348 1.625 4.69079V22.0241C1.625 22.3114 1.73914 22.587 1.9423 22.7902C2.14547 22.9933 2.42102 23.1075 2.70833 23.1075H13.5417C13.829 23.1075 14.1045 22.9933 14.3077 22.7902C14.5109 22.587 14.625 22.3114 14.625 22.0241V13.3575L17.0083 22.2625C17.0718 22.4988 17.2135 22.7067 17.4102 22.8523C17.6069 22.9978 17.8471 23.0725 18.0917 23.0641C18.1853 23.0748 18.2797 23.0748 18.3733 23.0641L23.6058 21.6666C23.7442 21.6296 23.8738 21.5656 23.9872 21.4782C24.1007 21.3908 24.1956 21.2818 24.2667 21.1575C24.3809 20.9178 24.4078 20.6457 24.3425 20.3883ZM7.00917 20.9841H3.75917V18.8175H7.00917V20.9841ZM7.00917 16.6508H3.75917V10.1508H7.00917V16.6508ZM7.00917 7.98413H3.75917V5.81746H7.00917V7.98413ZM12.4258 20.9841H9.17583V18.8175H12.4258V20.9841ZM12.4258 16.6508H9.17583V10.1508H12.4258V16.6508ZM12.4258 7.98413H9.17583V5.81746H12.4258V7.98413ZM14.8633 6.09913L18.005 5.25413L18.5683 7.34496L15.4267 8.18996L14.8633 6.09913ZM17.6692 16.5641L15.99 10.2808L19.1317 9.43579L20.8108 15.7191L17.6692 16.5641ZM18.7525 20.7458L18.1892 18.655L21.3308 17.81L21.8942 19.9008L18.7525 20.7458Z" fill="#828282"/>
</svg>
