<svg width="26" height="26" viewBox="0 0 26 26" fill="none" xmlns="http://www.w3.org/2000/svg">
<path d="M16.0442 13.3032C16.7299 12.5668 17.1162 11.601 17.1275 10.5948C17.1275 9.50878 16.6961 8.4672 15.9281 7.69923C15.1601 6.93127 14.1186 6.49984 13.0325 6.49984C11.9464 6.49984 10.9049 6.93127 10.1369 7.69923C9.36893 8.4672 8.93749 9.50878 8.93749 10.5948C8.94879 11.601 9.3351 12.5668 10.0208 13.3032C9.06603 13.7786 8.2444 14.4839 7.62982 15.3557C7.01523 16.2275 6.62699 17.2383 6.49999 18.2973C6.46839 18.5847 6.55221 18.8728 6.73303 19.0983C6.91384 19.3238 7.17684 19.4682 7.46416 19.4998C7.75147 19.5314 8.03958 19.4476 8.26509 19.2668C8.4906 19.086 8.63505 18.823 8.66666 18.5357C8.79593 17.4861 9.30457 16.52 10.0968 15.8194C10.8889 15.1188 11.91 14.7321 12.9675 14.7321C14.025 14.7321 15.0461 15.1188 15.8382 15.8194C16.6304 16.52 17.139 17.4861 17.2683 18.5357C17.2985 18.8135 17.4347 19.0689 17.6487 19.2485C17.8627 19.4282 18.1379 19.5182 18.4167 19.4998H18.5358C18.8198 19.4672 19.0794 19.3236 19.2579 19.1004C19.4365 18.8771 19.5196 18.5924 19.4892 18.3082C19.3716 17.2547 18.9956 16.2466 18.3946 15.3735C17.7936 14.5003 16.9862 13.7892 16.0442 13.3032ZM13 12.5232C12.6186 12.5232 12.2458 12.4101 11.9287 12.1982C11.6116 11.9863 11.3644 11.6851 11.2184 11.3328C11.0725 10.9804 11.0343 10.5927 11.1087 10.2186C11.1831 9.84458 11.3668 9.50098 11.6365 9.2313C11.9061 8.96162 12.2497 8.77796 12.6238 8.70356C12.9979 8.62915 13.3856 8.66734 13.7379 8.81329C14.0903 8.95924 14.3915 9.2064 14.6033 9.52351C14.8152 9.84063 14.9283 10.2134 14.9283 10.5948C14.9283 11.1063 14.7252 11.5967 14.3635 11.9584C14.0019 12.32 13.5114 12.5232 13 12.5232ZM20.5833 2.1665H5.41666C4.5547 2.1665 3.72805 2.50891 3.11856 3.11841C2.50907 3.7279 2.16666 4.55455 2.16666 5.4165V20.5832C2.16666 21.4451 2.50907 22.2718 3.11856 22.8813C3.72805 23.4908 4.5547 23.8332 5.41666 23.8332H20.5833C21.4453 23.8332 22.2719 23.4908 22.8814 22.8813C23.4909 22.2718 23.8333 21.4451 23.8333 20.5832V5.4165C23.8333 4.55455 23.4909 3.7279 22.8814 3.11841C22.2719 2.50891 21.4453 2.1665 20.5833 2.1665ZM21.6667 20.5832C21.6667 20.8705 21.5525 21.146 21.3494 21.3492C21.1462 21.5524 20.8706 21.6665 20.5833 21.6665H5.41666C5.12934 21.6665 4.85379 21.5524 4.65062 21.3492C4.44746 21.146 4.33332 20.8705 4.33332 20.5832V5.4165C4.33332 5.12919 4.44746 4.85364 4.65062 4.65047C4.85379 4.44731 5.12934 4.33317 5.41666 4.33317H20.5833C20.8706 4.33317 21.1462 4.44731 21.3494 4.65047C21.5525 4.85364 21.6667 5.12919 21.6667 5.4165V20.5832Z" fill="#017025"/>
</svg>
