<svg width="26" height="26" viewBox="0 0 26 26" fill="none" xmlns="http://www.w3.org/2000/svg">
<path d="M21.6667 2.16675H10.8333C9.97139 2.16675 9.14474 2.50916 8.53525 3.11865C7.92575 3.72814 7.58334 4.55479 7.58334 5.41675V13.0001C7.58334 13.862 7.92575 14.6887 8.53525 15.2982C9.14474 15.9077 9.97139 16.2501 10.8333 16.2501H21.6667C22.5286 16.2501 23.3553 15.9077 23.9648 15.2982C24.5743 14.6887 24.9167 13.862 24.9167 13.0001V5.41675C24.9167 4.55479 24.5743 3.72814 23.9648 3.11865C23.3553 2.50916 22.5286 2.16675 21.6667 2.16675ZM22.75 13.0001C22.75 13.2874 22.6359 13.5629 22.4327 13.7661C22.2295 13.9693 21.954 14.0834 21.6667 14.0834H10.8333C10.546 14.0834 10.2705 13.9693 10.0673 13.7661C9.86415 13.5629 9.75001 13.2874 9.75001 13.0001V5.41675C9.75001 5.12943 9.86415 4.85388 10.0673 4.65072C10.2705 4.44755 10.546 4.33341 10.8333 4.33341H21.6667C21.954 4.33341 22.2295 4.44755 22.4327 4.65072C22.6359 4.85388 22.75 5.12943 22.75 5.41675V13.0001ZM18.9583 8.66675C18.5573 8.66811 18.1711 8.81872 17.875 9.08925C17.6421 8.87751 17.3526 8.738 17.0419 8.68766C16.7311 8.63732 16.4124 8.67833 16.1246 8.80569C15.8367 8.93306 15.592 9.1413 15.4202 9.40511C15.2485 9.66893 15.157 9.97695 15.157 10.2917C15.157 10.6065 15.2485 10.9146 15.4202 11.1784C15.592 11.4422 15.8367 11.6504 16.1246 11.7778C16.4124 11.9052 16.7311 11.9462 17.0419 11.8958C17.3526 11.8455 17.6421 11.706 17.875 11.4942C18.0706 11.6721 18.3067 11.7994 18.5627 11.8654C18.8187 11.9313 19.0869 11.9338 19.3441 11.8726C19.6013 11.8114 19.8397 11.6884 20.0386 11.5142C20.2374 11.34 20.3908 11.12 20.4854 10.8731C20.58 10.6263 20.6129 10.36 20.5813 10.0976C20.5497 9.8351 20.4546 9.5843 20.3041 9.36693C20.1537 9.14955 19.9525 8.97217 19.718 8.85015C19.4834 8.72814 19.2227 8.66518 18.9583 8.66675ZM17.3333 18.4167C17.046 18.4167 16.7705 18.5309 16.5673 18.734C16.3641 18.9372 16.25 19.2128 16.25 19.5001V20.5834C16.25 20.8707 16.1359 21.1463 15.9327 21.3494C15.7295 21.5526 15.454 21.6667 15.1667 21.6667H4.33334C4.04603 21.6667 3.77048 21.5526 3.56731 21.3494C3.36415 21.1463 3.25001 20.8707 3.25001 20.5834V16.2501H4.33334C4.62066 16.2501 4.89621 16.1359 5.09938 15.9328C5.30254 15.7296 5.41668 15.4541 5.41668 15.1667C5.41668 14.8794 5.30254 14.6039 5.09938 14.4007C4.89621 14.1976 4.62066 14.0834 4.33334 14.0834H3.25001V13.0001C3.25001 12.7128 3.36415 12.4372 3.56731 12.234C3.77048 12.0309 4.04603 11.9167 4.33334 11.9167C4.62066 11.9167 4.89621 11.8026 5.09938 11.5994C5.30254 11.3963 5.41668 11.1207 5.41668 10.8334C5.41668 10.5461 5.30254 10.2705 5.09938 10.0674C4.89621 9.86422 4.62066 9.75008 4.33334 9.75008C3.47139 9.75008 2.64474 10.0925 2.03525 10.702C1.42575 11.3115 1.08334 12.1381 1.08334 13.0001V20.5834C1.08334 21.4454 1.42575 22.272 2.03525 22.8815C2.64474 23.491 3.47139 23.8334 4.33334 23.8334H15.1667C16.0286 23.8334 16.8553 23.491 17.4648 22.8815C18.0743 22.272 18.4167 21.4454 18.4167 20.5834V19.5001C18.4167 19.2128 18.3025 18.9372 18.0994 18.734C17.8962 18.5309 17.6207 18.4167 17.3333 18.4167ZM6.50001 19.5001H7.58334C7.87066 19.5001 8.14621 19.3859 8.34938 19.1828C8.55254 18.9796 8.66668 18.7041 8.66668 18.4167C8.66668 18.1294 8.55254 17.8539 8.34938 17.6507C8.14621 17.4476 7.87066 17.3334 7.58334 17.3334H6.50001C6.21269 17.3334 5.93714 17.4476 5.73398 17.6507C5.53081 17.8539 5.41668 18.1294 5.41668 18.4167C5.41668 18.7041 5.53081 18.9796 5.73398 19.1828C5.93714 19.3859 6.21269 19.5001 6.50001 19.5001Z" fill="#F26F21"/>
</svg>
