<svg width="18" height="22" viewBox="0 0 18 22" fill="none" xmlns="http://www.w3.org/2000/svg">
<path d="M15.5 12.2784V8.83335C15.4984 7.2984 14.9537 5.81353 13.9623 4.64169C12.9709 3.46986 11.5968 2.68668 10.0833 2.43085V1.25002C10.0833 0.962703 9.96918 0.687152 9.76601 0.483988C9.56285 0.280824 9.2873 0.166687 8.99998 0.166687C8.71266 0.166687 8.43711 0.280824 8.23395 0.483988C8.03078 0.687152 7.91665 0.962703 7.91665 1.25002V2.43085C6.40316 2.68668 5.02905 3.46986 4.03765 4.64169C3.04625 5.81353 2.50154 7.2984 2.49998 8.83335V12.2784C1.8678 12.5019 1.32023 12.9154 0.93233 13.4624C0.544431 14.0093 0.335197 14.6628 0.333313 15.3334V17.5C0.333313 17.7873 0.44745 18.0629 0.650614 18.2661C0.853779 18.4692 1.12933 18.5834 1.41665 18.5834H4.81831C5.06779 19.5013 5.6124 20.3117 6.36813 20.8895C7.12385 21.4672 8.0487 21.7803 8.99998 21.7803C9.95126 21.7803 10.8761 21.4672 11.6318 20.8895C12.3876 20.3117 12.9322 19.5013 13.1816 18.5834H16.5833C16.8706 18.5834 17.1462 18.4692 17.3493 18.2661C17.5525 18.0629 17.6666 17.7873 17.6666 17.5V15.3334C17.6648 14.6628 17.4555 14.0093 17.0676 13.4624C16.6797 12.9154 16.1322 12.5019 15.5 12.2784ZM8.99998 19.6667C8.62187 19.6644 8.25093 19.5632 7.92405 19.3732C7.59716 19.1831 7.3257 18.9108 7.13665 18.5834H10.8633C10.6743 18.9108 10.4028 19.1831 10.0759 19.3732C9.74903 19.5632 9.37809 19.6644 8.99998 19.6667Z" fill="#B9B9B9"/>
</svg>
