<svg width="12" height="8" viewBox="0 0 12 8" fill="none" xmlns="http://www.w3.org/2000/svg">
<path d="M11.4167 0.934166C11.2137 0.732394 10.9391 0.619141 10.6529 0.619141C10.3667 0.619141 10.0922 0.732394 9.88919 0.934166L6.00003 4.76917L2.16503 0.934166C1.96205 0.732394 1.68748 0.619141 1.40128 0.619141C1.11507 0.619141 0.840502 0.732394 0.637526 0.934166C0.535987 1.03488 0.455393 1.15469 0.400393 1.28671C0.345394 1.41872 0.317078 1.56032 0.317078 1.70333C0.317078 1.84635 0.345394 1.98794 0.400393 2.11996C0.455393 2.25197 0.535987 2.37179 0.637526 2.4725L5.23086 7.06583C5.33157 7.16737 5.45139 7.24797 5.5834 7.30296C5.71542 7.35796 5.85701 7.38628 6.00003 7.38628C6.14304 7.38628 6.28464 7.35796 6.41665 7.30296C6.54867 7.24797 6.66848 7.16737 6.76919 7.06583L11.4167 2.4725C11.5182 2.37179 11.5988 2.25197 11.6538 2.11996C11.7088 1.98794 11.7371 1.84635 11.7371 1.70333C11.7371 1.56032 11.7088 1.41872 11.6538 1.28671C11.5988 1.15469 11.5182 1.03488 11.4167 0.934166Z" fill="#B9B9B9"/>
</svg>
