<svg width="20" height="22" viewBox="0 0 20 22" fill="none" xmlns="http://www.w3.org/2000/svg">
<path d="M18.6667 6.66667L12.1667 0.96834C11.5708 0.435389 10.7994 0.140747 10 0.140747C9.20058 0.140747 8.4292 0.435389 7.83334 0.96834L1.33334 6.66667C0.989244 6.97442 0.714653 7.35194 0.527856 7.77411C0.341059 8.19627 0.246342 8.65338 0.250011 9.11501V18.5833C0.250011 19.4453 0.592421 20.2719 1.20191 20.8814C1.81141 21.4909 2.63806 21.8333 3.50001 21.8333H16.5C17.362 21.8333 18.1886 21.4909 18.7981 20.8814C19.4076 20.2719 19.75 19.4453 19.75 18.5833V9.10417C19.7521 8.64437 19.6567 8.18934 19.4699 7.76916C19.2832 7.34898 19.0094 6.97321 18.6667 6.66667ZM12.1667 19.6667H7.83334V14.25C7.83334 13.9627 7.94748 13.6871 8.15065 13.484C8.35381 13.2808 8.62936 13.1667 8.91668 13.1667H11.0833C11.3707 13.1667 11.6462 13.2808 11.8494 13.484C12.0525 13.6871 12.1667 13.9627 12.1667 14.25V19.6667ZM17.5833 18.5833C17.5833 18.8707 17.4692 19.1462 17.266 19.3494C17.0629 19.5525 16.7873 19.6667 16.5 19.6667H14.3333V14.25C14.3333 13.3881 13.9909 12.5614 13.3814 11.9519C12.7719 11.3424 11.9453 11 11.0833 11H8.91668C8.05472 11 7.22807 11.3424 6.61858 11.9519C6.00909 12.5614 5.66668 13.3881 5.66668 14.25V19.6667H3.50001C3.21269 19.6667 2.93714 19.5525 2.73398 19.3494C2.53081 19.1462 2.41668 18.8707 2.41668 18.5833V9.10417C2.41687 8.95036 2.44982 8.79834 2.51333 8.65825C2.57684 8.51816 2.66945 8.39319 2.78501 8.29167L9.28501 2.60417C9.48271 2.43049 9.73686 2.33471 10 2.33471C10.2632 2.33471 10.5173 2.43049 10.715 2.60417L17.215 8.29167C17.3306 8.39319 17.4232 8.51816 17.4867 8.65825C17.5502 8.79834 17.5832 8.95036 17.5833 9.10417V18.5833Z" fill="#F26F21"/>
</svg>
