<svg width="15" height="18" viewBox="0 0 15 18" fill="none" xmlns="http://www.w3.org/2000/svg">
<path d="M12.8333 2.7333C11.5072 1.40722 9.7087 0.662231 7.83333 0.662231C5.95797 0.662231 4.15941 1.40722 2.83333 2.7333C1.50725 4.05938 0.762264 5.85794 0.762264 7.7333C0.762264 9.60866 1.50725 11.4072 2.83333 12.7333L7.225 17.1333C7.30247 17.2114 7.39464 17.2734 7.49618 17.3157C7.59773 17.358 7.70665 17.3798 7.81666 17.3798C7.92667 17.3798 8.0356 17.358 8.13715 17.3157C8.23869 17.2734 8.33086 17.2114 8.40833 17.1333L12.8333 12.6916C14.1539 11.3711 14.8957 9.58001 14.8957 7.71247C14.8957 5.84492 14.1539 4.05386 12.8333 2.7333ZM11.6417 11.5L7.83333 15.325L4.025 11.5C3.27262 10.7469 2.7604 9.78767 2.55308 8.74354C2.34576 7.69941 2.45266 6.61725 2.86025 5.63387C3.26785 4.65048 3.95785 3.81001 4.84302 3.2187C5.7282 2.62739 6.76882 2.31178 7.83333 2.31178C8.89784 2.31178 9.93846 2.62739 10.8236 3.2187C11.7088 3.81001 12.3988 4.65048 12.8064 5.63387C13.214 6.61725 13.3209 7.69941 13.1136 8.74354C12.9063 9.78767 12.394 10.7469 11.6417 11.5ZM5.33333 5.17497C4.66059 5.84978 4.28283 6.76377 4.28283 7.71663C4.28283 8.66949 4.66059 9.58349 5.33333 10.2583C5.83313 10.759 6.46965 11.1009 7.16304 11.2411C7.85643 11.3814 8.57579 11.3138 9.23089 11.0468C9.88599 10.7797 10.4476 10.3252 10.8454 9.74017C11.2431 9.15515 11.4593 8.46569 11.4667 7.7583C11.4704 7.28597 11.3794 6.81768 11.1991 6.38112C11.0187 5.94456 10.7527 5.5486 10.4167 5.21663C10.0864 4.87878 9.69256 4.60958 9.25785 4.42452C8.82314 4.23946 8.35612 4.1422 7.88367 4.13832C7.41122 4.13445 6.94266 4.22405 6.50497 4.40196C6.06729 4.57986 5.6691 4.84257 5.33333 5.17497ZM9.24166 9.07497C8.92587 9.39558 8.50851 9.59655 8.06094 9.64351C7.61337 9.69047 7.16338 9.5805 6.78792 9.33241C6.41246 9.08431 6.13483 8.7135 6.0025 8.28337C5.87018 7.85324 5.89137 7.3905 6.06246 6.97426C6.23355 6.55803 6.54392 6.21415 6.94049 6.00141C7.33706 5.78868 7.79521 5.72031 8.23661 5.80798C8.67802 5.89565 9.07526 6.13393 9.36042 6.48207C9.64559 6.83022 9.80097 7.26661 9.8 7.71663C9.78787 8.23102 9.57207 8.71957 9.2 9.07497H9.24166Z" fill="#B9B9B9"/>
</svg>
