<svg width="20" height="22" viewBox="0 0 20 22" fill="none" xmlns="http://www.w3.org/2000/svg">
<path d="M14.3333 19.6666H5.66667C4.80471 19.6666 3.97806 19.3242 3.36857 18.7147C2.75908 18.1052 2.41667 17.2786 2.41667 16.4166V5.58329C2.41667 5.29597 2.30253 5.02043 2.09937 4.81726C1.8962 4.6141 1.62065 4.49996 1.33333 4.49996C1.04602 4.49996 0.770465 4.6141 0.567301 4.81726C0.364137 5.02043 0.25 5.29597 0.25 5.58329V16.4166C0.25 17.8532 0.820683 19.231 1.8365 20.2468C2.85233 21.2626 4.23008 21.8333 5.66667 21.8333H14.3333C14.6207 21.8333 14.8962 21.7192 15.0994 21.516C15.3025 21.3128 15.4167 21.0373 15.4167 20.75C15.4167 20.4626 15.3025 20.1871 15.0994 19.9839C14.8962 19.7808 14.6207 19.6666 14.3333 19.6666ZM7.83333 12.0833C7.83333 12.3706 7.94747 12.6462 8.15063 12.8493C8.3538 13.0525 8.62935 13.1666 8.91667 13.1666H14.3333C14.6207 13.1666 14.8962 13.0525 15.0994 12.8493C15.3025 12.6462 15.4167 12.3706 15.4167 12.0833C15.4167 11.796 15.3025 11.5204 15.0994 11.3173C14.8962 11.1141 14.6207 11 14.3333 11H8.91667C8.62935 11 8.3538 11.1141 8.15063 11.3173C7.94747 11.5204 7.83333 11.796 7.83333 12.0833ZM19.75 7.68496C19.7387 7.58544 19.7169 7.48739 19.685 7.39246V7.29496C19.6329 7.18357 19.5634 7.08118 19.4792 6.99163L12.9792 0.491626C12.8896 0.40736 12.7872 0.33788 12.6758 0.285793C12.6435 0.281199 12.6107 0.281199 12.5783 0.285793C12.4683 0.222679 12.3467 0.182166 12.2208 0.166626H7.83333C6.97138 0.166626 6.14473 0.509036 5.53524 1.11853C4.92574 1.72802 4.58333 2.55467 4.58333 3.41663V14.25C4.58333 15.1119 4.92574 15.9386 5.53524 16.5481C6.14473 17.1576 6.97138 17.5 7.83333 17.5H16.5C17.362 17.5 18.1886 17.1576 18.7981 16.5481C19.4076 15.9386 19.75 15.1119 19.75 14.25V7.68496ZM13.25 3.86079L16.0558 6.66663H14.3333C14.046 6.66663 13.7705 6.55249 13.5673 6.34933C13.3641 6.14616 13.25 5.87061 13.25 5.58329V3.86079ZM17.5833 14.25C17.5833 14.5373 17.4692 14.8128 17.266 15.016C17.0629 15.2192 16.7873 15.3333 16.5 15.3333H7.83333C7.54602 15.3333 7.27047 15.2192 7.0673 15.016C6.86414 14.8128 6.75 14.5373 6.75 14.25V3.41663C6.75 3.12931 6.86414 2.85376 7.0673 2.65059C7.27047 2.44743 7.54602 2.33329 7.83333 2.33329H11.0833V5.58329C11.0863 5.95286 11.1522 6.31923 11.2783 6.66663H8.91667C8.62935 6.66663 8.3538 6.78076 8.15063 6.98393C7.94747 7.18709 7.83333 7.46264 7.83333 7.74996C7.83333 8.03728 7.94747 8.31283 8.15063 8.51599C8.3538 8.71916 8.62935 8.83329 8.91667 8.83329H17.5833V14.25Z" fill="#B9B9B9"/>
</svg>
