<svg width="14" height="15" viewBox="0 0 14 15" fill="none" xmlns="http://www.w3.org/2000/svg">
<path d="M12.19 6.09375H7.97125V1.875C7.97125 1.35732 7.55143 0.9375 7.03375 0.9375H6.09625C5.57858 0.9375 5.15875 1.35732 5.15875 1.875V6.09375H0.940002C0.422327 6.09375 0.00250244 6.51357 0.00250244 7.03125V7.96875C0.00250244 8.48643 0.422327 8.90625 0.940002 8.90625H5.15875V13.125C5.15875 13.6427 5.57858 14.0625 6.09625 14.0625H7.03375C7.55143 14.0625 7.97125 13.6427 7.97125 13.125V8.90625H12.19C12.7077 8.90625 13.1275 8.48643 13.1275 7.96875V7.03125C13.1275 6.51357 12.7077 6.09375 12.19 6.09375Z" fill="white"/>
</svg>
