<svg width="17" height="20" viewBox="0 0 17 20" fill="none" xmlns="http://www.w3.org/2000/svg">
<path d="M8.33333 15.8334C8.49814 15.8334 8.65926 15.7845 8.7963 15.6929C8.93334 15.6014 9.04015 15.4712 9.10322 15.3189C9.1663 15.1667 9.1828 14.9991 9.15065 14.8375C9.11849 14.6758 9.03912 14.5273 8.92258 14.4108C8.80604 14.2942 8.65755 14.2149 8.4959 14.1827C8.33425 14.1506 8.16669 14.1671 8.01442 14.2301C7.86215 14.2932 7.732 14.4 7.64043 14.5371C7.54887 14.6741 7.49999 14.8352 7.49999 15C7.49999 15.2211 7.58779 15.433 7.74407 15.5893C7.90035 15.7456 8.11231 15.8334 8.33333 15.8334ZM12.5 15.8334C12.6648 15.8334 12.8259 15.7845 12.963 15.6929C13.1 15.6014 13.2068 15.4712 13.2699 15.3189C13.333 15.1667 13.3495 14.9991 13.3173 14.8375C13.2852 14.6758 13.2058 14.5273 13.0892 14.4108C12.9727 14.2942 12.8242 14.2149 12.6626 14.1827C12.5009 14.1506 12.3334 14.1671 12.1811 14.2301C12.0288 14.2932 11.8987 14.4 11.8071 14.5371C11.7155 14.6741 11.6667 14.8352 11.6667 15C11.6667 15.2211 11.7545 15.433 11.9107 15.5893C12.067 15.7456 12.279 15.8334 12.5 15.8334ZM12.5 12.5C12.6648 12.5 12.8259 12.4512 12.963 12.3596C13.1 12.268 13.2068 12.1379 13.2699 11.9856C13.333 11.8333 13.3495 11.6658 13.3173 11.5041C13.2852 11.3425 13.2058 11.194 13.0892 11.0775C12.9727 10.9609 12.8242 10.8815 12.6626 10.8494C12.5009 10.8172 12.3334 10.8337 12.1811 10.8968C12.0288 10.9599 11.8987 11.0667 11.8071 11.2037C11.7155 11.3408 11.6667 11.5019 11.6667 11.6667C11.6667 11.8877 11.7545 12.0997 11.9107 12.256C12.067 12.4122 12.279 12.5 12.5 12.5ZM8.33333 12.5C8.49814 12.5 8.65926 12.4512 8.7963 12.3596C8.93334 12.268 9.04015 12.1379 9.10322 11.9856C9.1663 11.8333 9.1828 11.6658 9.15065 11.5041C9.11849 11.3425 9.03912 11.194 8.92258 11.0775C8.80604 10.9609 8.65755 10.8815 8.4959 10.8494C8.33425 10.8172 8.16669 10.8337 8.01442 10.8968C7.86215 10.9599 7.732 11.0667 7.64043 11.2037C7.54887 11.3408 7.49999 11.5019 7.49999 11.6667C7.49999 11.8877 7.58779 12.0997 7.74407 12.256C7.90035 12.4122 8.11231 12.5 8.33333 12.5ZM14.1667 2.50004H13.3333V1.66671C13.3333 1.44569 13.2455 1.23373 13.0892 1.07745C12.933 0.921171 12.721 0.833374 12.5 0.833374C12.279 0.833374 12.067 0.921171 11.9107 1.07745C11.7545 1.23373 11.6667 1.44569 11.6667 1.66671V2.50004H4.99999V1.66671C4.99999 1.44569 4.91219 1.23373 4.75591 1.07745C4.59963 0.921171 4.38767 0.833374 4.16666 0.833374C3.94565 0.833374 3.73368 0.921171 3.5774 1.07745C3.42112 1.23373 3.33333 1.44569 3.33333 1.66671V2.50004H2.49999C1.83695 2.50004 1.20107 2.76343 0.732225 3.23227C0.263385 3.70111 -7.62939e-06 4.337 -7.62939e-06 5.00004V16.6667C-7.62939e-06 17.3297 0.263385 17.9656 0.732225 18.4345C1.20107 18.9033 1.83695 19.1667 2.49999 19.1667H14.1667C14.8297 19.1667 15.4656 18.9033 15.9344 18.4345C16.4033 17.9656 16.6667 17.3297 16.6667 16.6667V5.00004C16.6667 4.337 16.4033 3.70111 15.9344 3.23227C15.4656 2.76343 14.8297 2.50004 14.1667 2.50004ZM15 16.6667C15 16.8877 14.9122 17.0997 14.7559 17.256C14.5996 17.4122 14.3877 17.5 14.1667 17.5H2.49999C2.27898 17.5 2.06702 17.4122 1.91074 17.256C1.75446 17.0997 1.66666 16.8877 1.66666 16.6667V9.16671H15V16.6667ZM15 7.50004H1.66666V5.00004C1.66666 4.77903 1.75446 4.56707 1.91074 4.41078C2.06702 4.2545 2.27898 4.16671 2.49999 4.16671H3.33333V5.00004C3.33333 5.22105 3.42112 5.43302 3.5774 5.5893C3.73368 5.74558 3.94565 5.83337 4.16666 5.83337C4.38767 5.83337 4.59963 5.74558 4.75591 5.5893C4.91219 5.43302 4.99999 5.22105 4.99999 5.00004V4.16671H11.6667V5.00004C11.6667 5.22105 11.7545 5.43302 11.9107 5.5893C12.067 5.74558 12.279 5.83337 12.5 5.83337C12.721 5.83337 12.933 5.74558 13.0892 5.5893C13.2455 5.43302 13.3333 5.22105 13.3333 5.00004V4.16671H14.1667C14.3877 4.16671 14.5996 4.2545 14.7559 4.41078C14.9122 4.56707 15 4.77903 15 5.00004V7.50004ZM4.16666 12.5C4.33148 12.5 4.49259 12.4512 4.62963 12.3596C4.76667 12.268 4.87349 12.1379 4.93656 11.9856C4.99963 11.8333 5.01613 11.6658 4.98398 11.5041C4.95183 11.3425 4.87246 11.194 4.75591 11.0775C4.63937 10.9609 4.49088 10.8815 4.32923 10.8494C4.16758 10.8172 4.00003 10.8337 3.84776 10.8968C3.69548 10.9599 3.56534 11.0667 3.47377 11.2037C3.3822 11.3408 3.33333 11.5019 3.33333 11.6667C3.33333 11.8877 3.42112 12.0997 3.5774 12.256C3.73368 12.4122 3.94565 12.5 4.16666 12.5ZM4.16666 15.8334C4.33148 15.8334 4.49259 15.7845 4.62963 15.6929C4.76667 15.6014 4.87349 15.4712 4.93656 15.3189C4.99963 15.1667 5.01613 14.9991 4.98398 14.8375C4.95183 14.6758 4.87246 14.5273 4.75591 14.4108C4.63937 14.2942 4.49088 14.2149 4.32923 14.1827C4.16758 14.1506 4.00003 14.1671 3.84776 14.2301C3.69548 14.2932 3.56534 14.4 3.47377 14.5371C3.3822 14.6741 3.33333 14.8352 3.33333 15C3.33333 15.2211 3.42112 15.433 3.5774 15.5893C3.73368 15.7456 3.94565 15.8334 4.16666 15.8334Z" fill="#B9B9B9"/>
</svg>
